<svg width="88" height="19" viewBox="0 0 88 19" fill="none" xmlns="http://www.w3.org/2000/svg">
<path fill-rule="evenodd" clip-rule="evenodd" d="M10.6019 4.00107C9.03941 3.98403 7.52357 4.54527 6.33391 5.58132L6.58114 4.37604H3.07686L0 19H3.72743L4.49219 15.3445L4.69438 14.3557C5.05371 14.7714 5.90648 15.7195 8.15257 15.7195C11.7009 15.7195 14.7788 13.1301 15.4293 9.9685C15.9689 7.41868 15.026 4.00107 10.6009 4.00107H10.6019ZM11.7459 9.85065L11.725 9.87101C11.4316 11.2531 9.97124 12.6565 8.01743 12.6565C7.14162 12.6565 6.42295 12.3405 5.97457 11.8466C5.50314 11.3527 5.32295 10.6606 5.4801 9.89029C5.67006 9.0886 6.13136 8.38154 6.78229 7.89436C7.48313 7.35882 8.3337 7.06775 9.20857 7.06407C11.2525 7.06407 12.0162 8.5661 11.7459 9.84958V9.85065ZM39.6419 4.37604L35.9145 10.7399L34.7233 4.37604H27.0862L26.84 5.54275C26.4807 4.87101 25.5148 4 23.4709 4C20.1468 4 16.7326 6.25412 15.9919 9.84958C15.3183 12.9919 17.0469 15.7195 21.0006 15.7195C22.4599 15.7195 24.1225 15.2256 25.0203 14.1586L24.7741 15.3445H28.5015L30.7832 4.52711L33.1739 14.7907L30.3212 19H34.275L43.5956 4.37604H39.6419V4.37604ZM25.8971 10.0296C25.735 10.5542 25.458 11.0342 25.0873 11.433C24.4588 12.1048 23.5379 12.6576 22.2127 12.6576C19.9666 12.6576 19.4951 10.9188 19.6963 9.91065V9.89136C19.9666 8.64645 21.2468 7.06514 23.3808 7.06514C24.9522 7.06514 25.6258 7.83651 25.8741 8.58646C26.0312 9.04071 26.0312 9.53568 25.8961 10.0296H25.8971ZM50.9405 4.00214C48.7164 4.00214 47.7285 5.00921 47.19 5.54382L47.4362 4.37819H43.955L41.6429 15.3445H45.3724L46.6295 9.37604C46.8757 8.25005 47.3943 7.08335 49.2339 7.08335C50.8965 7.08335 50.9635 8.15149 50.7163 9.35462L49.4591 15.3435H53.1866L54.6239 8.48575C54.9392 7.00514 55.1404 4.00107 50.9415 4.00107L50.9405 4.00214ZM63.338 4.02143C58.8018 4.02143 55.9711 7.1637 55.4096 9.83137V9.85065C54.825 12.5387 56.3525 15.681 60.8897 15.681C65.4259 15.681 68.2566 12.5387 68.8411 9.85065C69.4027 7.1637 67.8742 4.02143 63.338 4.02143V4.02143ZM65.1116 9.85173C64.7764 11.4523 63.1589 12.619 61.5413 12.619C59.9238 12.619 58.8008 11.4534 59.1151 9.87208L59.1381 9.85065C59.4744 8.25112 61.0689 7.08549 62.6864 7.08549C64.3039 7.08549 65.449 8.25113 65.1116 9.85173V9.85173ZM84.1584 4.37712L80.8584 11.1952L80.1837 4.37819H77.0388L73.5575 11.1952L73.0861 4.37819H69.2225L70.7269 15.3456H74.1861L77.7794 8.25112L78.4091 15.3456H81.8683L88 4.37712H84.1584V4.37712Z" fill="#175FF8"/>
</svg>
